<?xml version="1.0" standalone="no"?>
<!DOCTYPE svg PUBLIC "-//W3C//DTD SVG 20010904//EN"
 "http://www.w3.org/TR/2001/REC-SVG-20010904/DTD/svg10.dtd">
<svg version="1.0" xmlns="http://www.w3.org/2000/svg"
 width="500.000000pt" height="500.000000pt" viewBox="0 0 500.000000 500.000000"
 preserveAspectRatio="xMidYMid meet">
<metadata>
Created by potrace 1.14, written by Peter Selinger 2001-2017
</metadata>
<g transform="translate(0.000000,500.000000) scale(0.100000,-0.100000)"
fill="#000000" stroke="none">
<path d="M1005 2035 l0 -255 76 0 c75 0 77 1 89 29 15 37 5 57 -65 131 -52 56
-77 112 -57 132 6 6 21 -1 43 -19 58 -50 82 -63 117 -63 43 0 82 38 82 80 0
34 -2 35 -29 18 -15 -9 -31 -7 -79 11 -46 17 -71 21 -101 16 -38 -6 -41 -5
-41 17 0 42 16 48 141 48 91 0 119 -3 129 -15 7 -8 19 -15 27 -15 11 0 13 14
11 68 l-3 67 -170 3 -170 2 0 -255z"/>
<path d="M1377 2143 c4 -194 9 -240 36 -287 72 -127 288 -101 326 40 5 21 11
119 13 217 l3 177 -77 0 -78 0 10 -26 c16 -42 13 -300 -5 -333 -41 -79 -195
-48 -195 39 0 38 10 58 71 137 58 76 75 127 54 160 -14 20 -23 23 -88 23 l-72
0 2 -147z"/>
<path d="M1798 2056 c2 -158 0 -242 -8 -255 -10 -20 -8 -21 50 -21 114 0 125
30 56 149 -24 42 -49 94 -55 116 -13 50 -14 132 -1 140 15 9 35 -32 91 -194
29 -85 64 -167 77 -182 22 -27 28 -29 103 -29 77 0 79 1 69 21 -8 13 -10 97
-8 255 l3 234 -50 0 c-58 0 -95 -21 -95 -53 0 -12 18 -53 40 -91 52 -88 70
-144 70 -211 0 -40 -4 -55 -14 -55 -17 0 -13 -8 -87 205 -37 105 -67 177 -80
188 -16 13 -39 17 -93 17 l-71 0 3 -234z"/>
<path d="M2390 2259 c13 -43 13 -404 1 -447 l-10 -32 79 0 c70 0 81 2 90 21
20 36 1 77 -66 143 -88 87 -87 107 4 60 89 -46 184 -30 235 38 30 41 34 133 8
175 -34 54 -70 66 -218 71 l-132 5 9 -34z m290 -92 c39 -13 51 -45 25 -67 -19
-16 -145 -25 -209 -16 -77 12 -101 56 -43 81 39 17 178 19 227 2z"/>
<path d="M2887 2266 c9 -44 -83 -435 -108 -460 -5 -6 -9 -14 -9 -18 0 -13 175
-9 188 4 16 16 15 67 -3 118 -8 23 -15 44 -15 46 0 2 16 4 35 4 32 0 35 -3 40
-37 4 -21 8 -50 11 -64 3 -14 0 -38 -5 -52 l-11 -27 100 0 c96 0 111 4 91 26
-25 25 -117 416 -108 460 l4 24 -107 0 -107 0 4 -24z m80 -137 c12 -30 24 -75
28 -101 l7 -48 -36 0 c-33 0 -39 4 -52 35 -17 42 -19 146 -2 163 20 20 32 9
55 -49z"/>
<path d="M3235 2036 l0 -256 70 0 c79 0 95 9 95 55 0 41 -19 66 -80 105 -48
31 -66 60 -37 60 20 0 87 -50 125 -94 26 -30 32 -45 32 -82 l0 -45 73 3 72 3
3 32 c2 18 -2 41 -8 53 -15 28 -77 66 -167 100 -89 34 -123 55 -123 75 0 23
24 18 51 -11 71 -77 190 -68 235 18 22 42 23 123 1 164 -27 52 -75 67 -217 72
l-125 4 0 -256z m313 125 c35 -19 25 -53 -18 -68 -50 -17 -183 -16 -225 1 -51
22 -46 64 10 79 35 10 209 1 233 -12z"/>
<path d="M3625 2035 l0 -255 67 0 c52 0 69 4 76 16 16 28 2 57 -54 110 -58 55
-62 64 -38 88 46 47 121 -22 153 -141 17 -63 32 -73 111 -73 l69 0 -24 43
c-12 23 -35 79 -50 125 -33 101 -43 108 -124 87 -72 -18 -71 -18 -71 -1 0 8
33 28 78 46 105 43 151 75 168 115 18 45 18 51 -6 75 -15 15 -33 20 -70 20
l-50 0 0 -40 c0 -55 -19 -88 -81 -144 -54 -49 -93 -66 -111 -48 -8 8 -2 19 22
39 117 100 142 141 100 175 -17 14 -39 18 -94 18 l-71 0 0 -255z"/>
</g>
</svg>
